<?xml version="1.0" encoding="utf-8"?>
<!-- Generator: Adobe Illustrator 23.0.0, SVG Export Plug-In . SVG Version: 6.00 Build 0)  -->
<svg version="1.1" id="Layer_1" xmlns="http://www.w3.org/2000/svg" xmlns:xlink="http://www.w3.org/1999/xlink" x="0px" y="0px"
	 viewBox="0 0 98.4 88.3" style="enable-background:new 0 0 98.4 88.3;" xml:space="preserve">
<style type="text/css">
	.st0{fill:#00529F;}
</style>
<title>hexagon-orange</title>
<path class="st0" d="M1.2,49.3c-1.6-3.3-1.6-7.1,0-10.4L20.7,5.2c2-3.1,5.3-5,9-5.2h39c3.7,0.2,7,2.1,9,5.2L97.2,39
	c1.6,3.3,1.6,7.1,0,10.4L77.7,83.1c-2,3.1-5.3,5-9,5.2h-39c-3.7-0.2-7-2.1-9-5.2L1.2,49.3z"/>
<path class="st0" d="M-24.8-19.2l-12.5,3.4l3.3,12.2l12.5-3.4L-24.8-19.2z M-25.2-8.3l-1.7-1.7l-3.9,3.9l-3.1-3.1l4-4l-1.7-1.7h6.4
	V-8.3z"/>
</svg>
