<?xml version="1.0" encoding="utf-8"?>
<!-- Generator: Adobe Illustrator 23.0.0, SVG Export Plug-In . SVG Version: 6.00 Build 0)  -->
<svg version="1.1" id="Capa_1" xmlns="http://www.w3.org/2000/svg" xmlns:xlink="http://www.w3.org/1999/xlink" x="0px" y="0px"
	 viewBox="0 0 113 31" style="enable-background:new 0 0 113 31;" xml:space="preserve">
<style type="text/css">
	.st0{fill:#FFFFFF;}
	.st1{fill:#00529F;}
</style>
<g>
	<g>
		<g>
			<path class="st0" d="M50.4,11.48h4.74c1.44,0,2.55,0.1,3.35,0.31s1.46,0.67,2,1.39c0.54,0.72,0.81,1.62,0.81,2.69
				c0,1.03-0.22,1.88-0.65,2.55c-0.43,0.67-1.04,1.16-1.8,1.46c-0.77,0.3-1.95,0.45-3.54,0.45h-1.28v5.19H50.4V11.48z M54.02,13.75
				v4.17h1.12c0.99,0,1.63-0.2,1.91-0.59c0.29-0.39,0.43-0.9,0.43-1.53c0-0.53-0.11-0.96-0.33-1.28c-0.22-0.33-0.48-0.54-0.77-0.63
				c-0.29-0.09-0.71-0.14-1.24-0.14H54.02z"/>
			<path class="st0" d="M65.19,14.31h3.04l3.92,11.21h-3.09l-0.69-2.32h-3.87l-0.67,2.32h-2.77L65.19,14.31z M67.81,21.28
				l-1.39-4.59l-1.33,4.59H67.81z"/>
			<path class="st0" d="M79.36,21.44l2.79,0.14c-0.1,1.22-0.57,2.21-1.42,2.97c-0.85,0.76-1.96,1.15-3.35,1.15
				c-1.69,0-2.98-0.51-3.86-1.54c-0.89-1.02-1.33-2.43-1.33-4.23c0-1.81,0.44-3.23,1.32-4.25c0.88-1.02,2.18-1.54,3.91-1.54
				c2.86,0,4.42,1.45,4.68,4.34l-2.76,0.16c-0.07-1.66-0.71-2.5-1.91-2.5c-0.63,0-1.13,0.27-1.5,0.81
				c-0.37,0.54-0.56,1.58-0.56,3.12c0,1.38,0.17,2.33,0.51,2.85c0.34,0.52,0.86,0.78,1.54,0.78C78.51,23.69,79.16,22.94,79.36,21.44
				z"/>
		</g>
		<g>
			<polygon class="st0" points="20.82,25.69 23.53,25.69 23.53,17.41 			"/>
			<polygon class="st0" points="16.44,25.69 19.1,25.69 16.44,17.41 			"/>
			<polygon class="st0" points="0,6.37 0,25.69 8.31,25.69 8.31,11.4 11.67,11.4 11.67,25.69 14.33,25.69 14.33,15.54 18.26,15.54 
				20.14,21.61 22.13,15.54 26.06,15.54 26.06,25.69 28.23,25.69 28.23,15.54 34.89,15.54 34.89,17.47 30.45,17.47 30.45,19.55 
				33.94,19.55 33.94,21.47 30.45,21.47 30.45,23.68 34.89,23.68 34.89,25.69 38.72,20.28 35.32,15.54 38.7,15.54 40.71,18.62 
				42.81,15.54 45.52,15.54 42.14,20.25 45.96,25.69 48.24,25.69 48.24,6.37 			"/>
			<polygon class="st0" points="37.64,25.69 42.61,25.69 40.12,22.01 			"/>
		</g>
	</g>
	<path class="st0" d="M106.11,0L81.37,6.67l6.53,24.18l24.74-6.68L106.11,0z M105.41,21.39l-3.27-3.36l-7.76,7.76l-6.09-6.09
		l7.83-7.83L92.85,8.5h12.56V21.39z"/>
</g>
<path class="st1" d="M52.34,31.59l-12.53,3.38l3.31,12.25l12.53-3.38L52.34,31.59z M51.99,42.42l-1.66-1.7l-3.93,3.93l-3.09-3.09
	l3.97-3.97l-1.66-1.7h6.37V42.42z"/>
</svg>
